<svg 
	xmlns="http://www.w3.org/2000/svg" 
	width="24"
	height="24" 
	fill="#db2b33" 
	viewBox="-23.2 -23.2 278.4 278.4"
>
		<path d="M83 141c0-10-3-19-10-26a38 38 0 0 0 0-51A38 38 0 0 0 46 0H0v16h46a22 22 0 0 1 21 22 22 22 0 0 1-10 19v14c6 4 10 11 10 19 0 7-4 14-11 18v14c7 4 11 11 11 19 0 7-4 15-11 19v14a22 22 0 0 1 11 19 22 22 0 0 1-21 22H0v16h46a38 38 0 0 0 37-38c0-10-3-19-10-26 7-7 10-17 10-26zM187 17h45V1h-45a38 38 0 0 0-38 37c0 10 4 19 10 26a38 38 0 0 0 0 51 38 38 0 0 0 1 52 38 38 0 0 0 0 52c7 7 17 11 27 11h45v-16h-45a22 22 0 0 1-22-21 22 22 0 0 1 12-19v-14c-7-4-12-12-12-19 0-8 4-15 11-19v-14c-7-4-11-11-11-18 0-8 4-15 11-19V57l-4-3a22 22 0 0 1 15-37zM108 1h16v231h-16z"/>
</svg>